# xmcd CD database file
#
# Track frame offsets:
#	150
#	20158
#	38463
#	60336
#	82248
#	106993
#	126999
#	153680
#	166500
#
# Disc length: 2332 seconds
#
# Revision: 0
# Processed by: cddbd v1.5.1PL0 Copyright (c) Steve Scherf et al.
# Submitted via: CDex 1.51
#
DISCID=6b091a09
DTITLE=Diverse System - Diverse Style from "B" 2nd style
DYEAR=1900
DGENRE=未分類 (日本)
TTITLE0=Perfect Free -Take the 俺 style- - ItoO Yusuke from AI-Processor
TTITLE1=R1 -ichi_koku- runners[Long edit.] - dj.overture(∫ＭｏＲ　ｄｋ／ｄθ)
TTITLE2=GRADIUSIC-21 - SLK(すぺらんか〜)
TTITLE3=you gorgeous - w32(worker #32)
TTITLE4=deep in you (prevaricating step mix) - Nacky
TTITLE5=D.C.E.（Perfect Selection Battle Style - hammer
TTITLE6=DREXIY! - BLACKHEART
TTITLE7=HELL SCAPER -突貫工事mix- - paraoka
TTITLE8=armajiro - K-SHI
EXTD=
EXTT0=
EXTT1=
EXTT2=
EXTT3=
EXTT4=
EXTT5=
EXTT6=
EXTT7=
EXTT8=
PLAYORDER=
